<?xml version="1.0" standalone="no"?>
<!DOCTYPE svg PUBLIC "-//W3C//DTD SVG 20010904//EN"
 "http://www.w3.org/TR/2001/REC-SVG-20010904/DTD/svg10.dtd">
<svg version="1.0" xmlns="http://www.w3.org/2000/svg"
 width="225.000000pt" height="225.000000pt" viewBox="0 0 225.000000 225.000000"
 preserveAspectRatio="xMidYMid meet">

<g transform="translate(0.000000,225.000000) scale(0.100000,-0.100000)"
fill="#000000" stroke="none">
<path d="M901 2225 c-96 -21 -187 -53 -276 -98 -311 -155 -528 -438 -599 -782
-19 -91 -19 -346 0 -440 39 -193 133 -384 256 -519 l44 -49 27 74 c50 136 155
278 270 365 112 84 306 162 416 165 l36 1 -44 9 c-180 35 -332 196 -363 384
-46 275 177 535 457 535 251 0 465 -214 465 -465 0 -206 -148 -395 -353 -450
-50 -13 -51 -14 -16 -14 58 -1 206 -48 289 -92 177 -92 332 -268 391 -446 l21
-65 35 34 c53 50 157 213 197 306 69 162 81 224 81 442 0 220 -9 275 -75 437
-53 128 -137 252 -244 359 -162 162 -332 255 -552 304 -109 24 -362 27 -463 5z"/>
</g>
</svg>
